<svg xmlns="http://www.w3.org/2000/svg" viewBox="0 0 800 500" fill="none">
  <defs>
    <linearGradient id="bg" x1="0" y1="0" x2="800" y2="500"><stop offset="0%" stop-color="#0A0A0A"/><stop offset="100%" stop-color="#111118"/></linearGradient>
  </defs>
  <rect width="800" height="500" fill="url(#bg)"/>
  <text x="400" y="36" text-anchor="middle" font-family="system-ui, sans-serif" font-size="18" font-weight="600" fill="#F8FAFC" letter-spacing="1">DASHBOARD OVERVIEW</text>
  <line x1="310" y1="44" x2="490" y2="44" stroke="#3F3F46" stroke-width="1"/>
  <!-- 3 panel grid -->
  <!-- Panel 1: Recent Memories -->
  <rect x="30" y="70" width="350" height="200" rx="8" fill="#111118" stroke="#27272A" stroke-width="0.5"/>
  <rect x="30" y="70" width="350" height="32" rx="8" fill="#1A1A2E"/>
  <text x="48" y="91" font-family="system-ui, sans-serif" font-size="11" fill="#818CF8" letter-spacing="0.5">Recent Memories</text>
  <text x="340" y="91" font-family="system-ui, sans-serif" font-size="9" fill="#52525B">view all →</text>
  <!-- Memory entries -->
  <rect x="45" y="112" width="320" height="36" rx="4" fill="#18181B" stroke="#27272A" stroke-width="0.3"/>
  <circle cx="58" cy="126" r="3" fill="#818CF8"/>
  <text x="66" y="121" font-family="system-ui, sans-serif" font-size="9" fill="#D4D4D8">Executed tool search_memories</text>
  <text x="66" y="136" font-family="system-ui, sans-serif" font-size="8" fill="#52525B">Episodic · 2 min ago · conf 0.9</text>
  <rect x="45" y="154" width="320" height="36" rx="4" fill="#18181B" stroke="#27272A" stroke-width="0.3"/>
  <circle cx="58" cy="168" r="3" fill="#34D399"/>
  <text x="66" y="163" font-family="system-ui, sans-serif" font-size="9" fill="#D4D4D8">SQLite schema uses WAL mode</text>
  <text x="66" y="178" font-family="system-ui, sans-serif" font-size="8" fill="#52525B">Semantic · 15 min ago · conf 0.95</text>
  <rect x="45" y="196" width="320" height="36" rx="4" fill="#18181B" stroke="#27272A" stroke-width="0.3"/>
  <circle cx="58" cy="210" r="3" fill="#FBBF24"/>
  <text x="66" y="205" font-family="system-ui, sans-serif" font-size="9" fill="#D4D4D8">Chose SQLite over PostgreSQL</text>
  <text x="66" y="220" font-family="system-ui, sans-serif" font-size="8" fill="#52525B">Decision · 1 hr ago · conf 0.92</text>
  <rect x="45" y="238" width="320" height="26" rx="4" fill="#18181B" stroke="none"/>
  <text x="58" y="255" font-family="ui-monospace, monospace" font-size="9" fill="#52525B">search_memories --type semantic --limit 3</text>
  <!-- Panel 2: Skills -->
  <rect x="420" y="70" width="350" height="200" rx="8" fill="#111118" stroke="#27272A" stroke-width="0.5"/>
  <rect x="420" y="70" width="350" height="32" rx="8" fill="#1A1A2E"/>
  <text x="438" y="91" font-family="system-ui, sans-serif" font-size="11" fill="#34D399" letter-spacing="0.5">Learned Skills</text>
  <text x="730" y="91" font-family="system-ui, sans-serif" font-size="9" fill="#52525B">manage →</text>
  <!-- Skill entries -->
  <rect x="435" y="112" width="320" height="28" rx="4" fill="#18181B" stroke="#27272A" stroke-width="0.3"/>
  <text x="445" y="131" font-family="system-ui, sans-serif" font-size="10" fill="#D4D4D8">debug-node</text>
  <rect x="580" y="117" width="120" height="18" rx="9" fill="#065F46"/>
  <text x="595" y="130" font-family="system-ui, sans-serif" font-size="8" fill="#34D399">success 92%</text>
  <rect x="435" y="146" width="320" height="28" rx="4" fill="#18181B" stroke="#27272A" stroke-width="0.3"/>
  <text x="445" y="165" font-family="system-ui, sans-serif" font-size="10" fill="#D4D4D8">review-pr</text>
  <rect x="580" y="151" width="120" height="18" rx="9" fill="#065F46"/>
  <text x="595" y="164" font-family="system-ui, sans-serif" font-size="8" fill="#34D399">success 88%</text>
  <rect x="435" y="180" width="320" height="28" rx="4" fill="#18181B" stroke="#27272A" stroke-width="0.3"/>
  <text x="445" y="199" font-family="system-ui, sans-serif" font-size="10" fill="#D4D4D8">write-test</text>
  <rect x="580" y="185" width="120" height="18" rx="9" fill="#065F46"/>
  <text x="595" y="198" font-family="system-ui, sans-serif" font-size="8" fill="#34D399">success 95%</text>
  <rect x="435" y="214" width="320" height="28" rx="4" fill="#18181B" stroke="#27272A" stroke-width="0.3"/>
  <text x="445" y="233" font-family="system-ui, sans-serif" font-size="10" fill="#D4D4D8">refactor-module</text>
  <rect x="580" y="219" width="120" height="18" rx="9" fill="#065F46"/>
  <text x="595" y="232" font-family="system-ui, sans-serif" font-size="8" fill="#34D399">success 100%</text>
  <rect x="435" y="248" width="320" height="18" rx="4" fill="#18181B" stroke="none"/>
  <text x="445" y="261" font-family="ui-monospace, monospace" font-size="9" fill="#52525B">create_skill --name "sqlite-migration" ...</text>
  <!-- Panel 3: Stats -->
  <rect x="30" y="290" width="740" height="90" rx="8" fill="#111118" stroke="#27272A" stroke-width="0.5"/>
  <rect x="30" y="290" width="740" height="32" rx="8" fill="#1A1A2E"/>
  <text x="48" y="311" font-family="system-ui, sans-serif" font-size="11" fill="#22D3EE" letter-spacing="0.5">System Status</text>
  <!-- Stat items -->
  <rect x="48" y="332" width="110" height="36" rx="6" fill="#18181B" stroke="#27272A" stroke-width="0.3"/>
  <text x="60" y="346" font-family="system-ui, sans-serif" font-size="20" font-weight="700" fill="#818CF8">47</text>
  <text x="60" y="360" font-family="system-ui, sans-serif" font-size="8" fill="#52525B">memories stored</text>
  <rect x="170" y="332" width="90" height="36" rx="6" fill="#18181B" stroke="#27272A" stroke-width="0.3"/>
  <text x="182" y="346" font-family="system-ui, sans-serif" font-size="20" font-weight="700" fill="#34D399">4</text>
  <text x="182" y="360" font-family="system-ui, sans-serif" font-size="8" fill="#52525B">skills learned</text>
  <rect x="272" y="332" width="90" height="36" rx="6" fill="#18181B" stroke="#27272A" stroke-width="0.3"/>
  <text x="284" y="346" font-family="system-ui, sans-serif" font-size="20" font-weight="700" fill="#FBBF24">7</text>
  <text x="284" y="360" font-family="system-ui, sans-serif" font-size="8" fill="#52525B">reflections</text>
  <rect x="374" y="332" width="110" height="36" rx="6" fill="#18181B" stroke="#27272A" stroke-width="0.3"/>
  <text x="386" y="346" font-family="system-ui, sans-serif" font-size="20" font-weight="700" fill="#22D3EE">5min</text>
  <text x="386" y="360" font-family="system-ui, sans-serif" font-size="8" fill="#52525B">dream interval</text>
  <rect x="496" y="332" width="120" height="36" rx="6" fill="#18181B" stroke="#27272A" stroke-width="0.3"/>
  <text x="508" y="346" font-family="system-ui, sans-serif" font-size="20" font-weight="700" fill="#F472B6">SQLite</text>
  <text x="508" y="360" font-family="system-ui, sans-serif" font-size="8" fill="#52525B">WAL mode · 24 KB</text>
  <rect x="628" y="332" width="120" height="36" rx="6" fill="#18181B" stroke="#27272A" stroke-width="0.3"/>
  <text x="640" y="346" font-family="system-ui, sans-serif" font-size="20" font-weight="700" fill="#A78BFA">Active</text>
  <text x="640" y="360" font-family="system-ui, sans-serif" font-size="8" fill="#52525B">all engines running</text>
  <!-- Panel 4: Dream Engine log -->
  <rect x="30" y="395" width="740" height="80" rx="8" fill="#111118" stroke="#27272A" stroke-width="0.5"/>
  <rect x="30" y="395" width="740" height="28" rx="8" fill="#1A1A2E"/>
  <text x="48" y="413" font-family="system-ui, sans-serif" font-size="10" fill="#F472B6" letter-spacing="0.5">Dream Engine Log</text>
  <text x="48" y="432" font-family="ui-monospace, monospace" font-size="8" fill="#6B7280">[11:32:01] ✓ Deduplicated 3 memories (kept highest confidence)</text>
  <text x="48" y="446" font-family="ui-monospace, monospace" font-size="8" fill="#6B7280">[11:27:01] ✓ Compressed 12 memories older than 7 days</text>
  <text x="48" y="460" font-family="ui-monospace, monospace" font-size="8" fill="#6B7280">[11:22:01] ✓ Promoted 2 memories (confidence ≥ 0.95)</text>
  <text x="48" y="474" font-family="ui-monospace, monospace" font-size="8" fill="#6B7280">[11:17:01] ✓ Archived 5 stale memories &gt; 1 month old</text>
</svg>