<svg xmlns="http://www.w3.org/2000/svg" viewBox="0 0 1200 400" fill="none">
  <defs>
    <linearGradient id="bg" x1="0" y1="0" x2="1200" y2="400">
      <stop offset="0%" stop-color="#0A0A0A"/>
      <stop offset="100%" stop-color="#111118"/>
    </linearGradient>
    <linearGradient id="accent" x1="0" y1="0" x2="1200" y2="400">
      <stop offset="0%" stop-color="#818CF8"/>
      <stop offset="50%" stop-color="#6C5CE7"/>
      <stop offset="100%" stop-color="#34D399"/>
    </linearGradient>
  </defs>
  <rect width="1200" height="400" fill="url(#bg)"/>
  <!-- Neural background -->
  <g opacity="0.08">
    <circle cx="200" cy="100" r="20" stroke="#818CF8" stroke-width="0.8"/>
    <circle cx="350" cy="150" r="15" stroke="#818CF8" stroke-width="0.8"/>
    <circle cx="500" cy="80" r="18" stroke="#818CF8" stroke-width="0.8"/>
    <circle cx="650" cy="160" r="16" stroke="#818CF8" stroke-width="0.8"/>
    <circle cx="800" cy="100" r="22" stroke="#818CF8" stroke-width="0.8"/>
    <circle cx="950" cy="140" r="14" stroke="#818CF8" stroke-width="0.8"/>
    <circle cx="250" cy="280" r="19" stroke="#818CF8" stroke-width="0.8"/>
    <circle cx="450" cy="300" r="13" stroke="#818CF8" stroke-width="0.8"/>
    <circle cx="700" cy="320" r="21" stroke="#818CF8" stroke-width="0.8"/>
    <circle cx="1000" cy="280" r="17" stroke="#818CF8" stroke-width="0.8"/>
    <line x1="200" y1="100" x2="350" y2="150" stroke="#818CF8" stroke-width="0.5"/>
    <line x1="350" y1="150" x2="500" y2="80" stroke="#818CF8" stroke-width="0.5"/>
    <line x1="500" y1="80" x2="650" y2="160" stroke="#818CF8" stroke-width="0.5"/>
    <line x1="650" y1="160" x2="800" y2="100" stroke="#818CF8" stroke-width="0.5"/>
    <line x1="800" y1="100" x2="950" y2="140" stroke="#818CF8" stroke-width="0.5"/>
    <line x1="200" y1="100" x2="250" y2="280" stroke="#818CF8" stroke-width="0.5"/>
    <line x1="350" y1="150" x2="450" y2="300" stroke="#818CF8" stroke-width="0.5"/>
    <line x1="500" y1="80" x2="700" y2="320" stroke="#818CF8" stroke-width="0.5"/>
    <line x1="800" y1="100" x2="1000" y2="280" stroke="#818CF8" stroke-width="0.5"/>
    <line x1="250" y1="280" x2="450" y2="300" stroke="#818CF8" stroke-width="0.5"/>
    <line x1="450" y1="300" x2="700" y2="320" stroke="#818CF8" stroke-width="0.5"/>
    <line x1="700" y1="320" x2="1000" y2="280" stroke="#818CF8" stroke-width="0.5"/>
  </g>
  <!-- Logo -->
  <circle cx="80" cy="90" r="32" stroke="url(#accent)" stroke-width="1.2" opacity="0.3"/>
  <circle cx="80" cy="90" r="14" stroke="url(#accent)" stroke-width="0.8" opacity="0.15"/>
  <circle cx="80" cy="74" r="3.5" fill="#818CF8"/>
  <circle cx="93" cy="81" r="2.5" fill="#818CF8"/>
  <circle cx="93" cy="99" r="2.5" fill="#818CF8"/>
  <circle cx="80" cy="106" r="3.5" fill="#818CF8"/>
  <circle cx="67" cy="99" r="2.5" fill="#818CF8"/>
  <circle cx="67" cy="81" r="2.5" fill="#818CF8"/>
  <circle cx="80" cy="90" r="5" fill="#34D399"/>
  <line x1="80" y1="74" x2="93" y2="81" stroke="#818CF8" stroke-width="0.6" opacity="0.5"/>
  <line x1="93" y1="81" x2="93" y2="99" stroke="#818CF8" stroke-width="0.6" opacity="0.5"/>
  <line x1="93" y1="99" x2="80" y2="106" stroke="#818CF8" stroke-width="0.6" opacity="0.5"/>
  <line x1="80" y1="106" x2="67" y2="99" stroke="#818CF8" stroke-width="0.6" opacity="0.5"/>
  <line x1="67" y1="99" x2="67" y2="81" stroke="#818CF8" stroke-width="0.6" opacity="0.5"/>
  <line x1="67" y1="81" x2="80" y2="74" stroke="#818CF8" stroke-width="0.6" opacity="0.5"/>
  <!-- Title -->
  <text x="140" y="95" font-family="system-ui, -apple-system, sans-serif" font-size="48" font-weight="700" fill="#F8FAFC" letter-spacing="-1">OpenBrain</text>
  <text x="140" y="135" font-family="system-ui, -apple-system, sans-serif" font-size="16" font-weight="400" fill="#6B7280" letter-spacing="0.3">Persistent memory, reflection &amp; learning for OpenCode AI</text>
  <!-- CTA pills -->
  <rect x="140" y="165" width="120" height="30" rx="15" fill="#27272A" stroke="#3F3F46" stroke-width="0.5"/>
  <text x="200" y="184" text-anchor="middle" font-family="system-ui, sans-serif" font-size="11" fill="#818CF8">How it works</text>
  <rect x="270" y="165" width="130" height="30" rx="15" fill="#27272A" stroke="#3F3F46" stroke-width="0.5"/>
  <text x="335" y="184" text-anchor="middle" font-family="system-ui, sans-serif" font-size="11" fill="#34D399">Installation</text>
  <rect x="410" y="165" width="120" height="30" rx="15" fill="#27272A" stroke="#3F3F46" stroke-width="0.5"/>
  <text x="470" y="184" text-anchor="middle" font-family="system-ui, sans-serif" font-size="11" fill="#06B6D4">API Reference</text>
  <!-- Feature badges -->
  <rect x="140" y="220" width="180" height="36" rx="6" fill="#1A1A2E" stroke="#2E2E3A" stroke-width="0.5"/>
  <circle cx="155" cy="238" r="4" fill="#818CF8"/>
  <text x="165" y="234" font-family="system-ui, sans-serif" font-size="11" fill="#D4D4D8">7 typed memory systems</text>
  <text x="165" y="248" font-family="system-ui, sans-serif" font-size="9" fill="#52525B">Episodic · Semantic · Procedural · more</text>
  <rect x="335" y="220" width="180" height="36" rx="6" fill="#1A1A2E" stroke="#2E2E3A" stroke-width="0.5"/>
  <circle cx="350" cy="238" r="4" fill="#34D399"/>
  <text x="360" y="234" font-family="system-ui, sans-serif" font-size="11" fill="#D4D4D8">Automatic context injection</text>
  <text x="360" y="248" font-family="system-ui, sans-serif" font-size="9" fill="#52525B">System prompt augmentation</text>
  <rect x="530" y="220" width="180" height="36" rx="6" fill="#1A1A2E" stroke="#2E2E3A" stroke-width="0.5"/>
  <circle cx="545" cy="238" r="4" fill="#FBBF24"/>
  <text x="555" y="234" font-family="system-ui, sans-serif" font-size="11" fill="#D4D4D8">Background maintenance</text>
  <text x="555" y="248" font-family="system-ui, sans-serif" font-size="9" fill="#52525B">Auto dedup · compress · archive</text>
  <!-- Stats row -->
  <text x="140" y="310" font-family="system-ui, sans-serif" font-size="32" font-weight="700" fill="#F8FAFC">9</text>
  <text x="158" y="310" font-family="system-ui, sans-serif" font-size="12" fill="#6B7280">Memory<br/>Types</text>
  <text x="230" y="310" font-family="system-ui, sans-serif" font-size="32" font-weight="700" fill="#F8FAFC">5</text>
  <text x="248" y="310" font-family="system-ui, sans-serif" font-size="12" fill="#6B7280">Domain<br/>Engines</text>
  <text x="320" y="310" font-family="system-ui, sans-serif" font-size="32" font-weight="700" fill="#F8FAFC">3</text>
  <text x="338" y="310" font-family="system-ui, sans-serif" font-size="12" fill="#6B7280">Plugin<br/>Tools</text>
  <text x="410" y="310" font-family="system-ui, sans-serif" font-size="32" font-weight="700" fill="#F8FAFC">1</text>
  <text x="428" y="310" font-family="system-ui, sans-serif" font-size="12" fill="#6B7280">SQLite<br/>Database</text>
  <!-- Terminal mockup -->
  <rect x="600" y="80" width="520" height="260" rx="8" fill="#18181B" stroke="#2E2E3A" stroke-width="0.5"/>
  <rect x="600" y="80" width="520" height="28" rx="8" fill="#1E1E24"/>
  <circle cx="618" cy="94" r="5" fill="#EC4899" opacity="0.6"/>
  <circle cx="634" cy="94" r="5" fill="#FBBF24" opacity="0.6"/>
  <circle cx="650" cy="94" r="5" fill="#34D399" opacity="0.6"/>
  <text x="860" y="98" text-anchor="middle" font-family="system-ui, sans-serif" font-size="10" fill="#52525B">OpenCode + OpenBrain</text>
  <text x="615" y="125" font-family="ui-monospace, monospace" font-size="10" fill="#6B7280">$ search_memories --query "database schema"</text>
  <text x="615" y="140" font-family="ui-monospace, monospace" font-size="10" fill="#818CF8">┌──────────────────────────────────────────┐</text>
  <text x="615" y="155" font-family="ui-monospace, monospace" font-size="10" fill="#818CF8">│ ID: mem_abc123                          │</text>
  <text x="615" y="170" font-family="ui-monospace, monospace" font-size="10" fill="#D4D4D8">│ Type: Semantic                          │</text>
  <text x="615" y="185" font-family="ui-monospace, monospace" font-size="10" fill="#D4D4D8">│ Content: SQLite schema uses WAL mode    │</text>
  <text x="615" y="200" font-family="ui-monospace, monospace" font-size="10" fill="#D4D4D8">│ Confidence: 0.95                        │</text>
  <text x="615" y="215" font-family="ui-monospace, monospace" font-size="10" fill="#818CF8">└──────────────────────────────────────────┘</text>
  <text x="615" y="235" font-family="ui-monospace, monospace" font-size="10" fill="#6B7280">$ create_skill --name "debug-node" ...</text>
  <text x="615" y="250" font-family="ui-monospace, monospace" font-size="10" fill="#34D399">✓ Skill 'debug-node' created</text>
  <text x="615" y="270" font-family="ui-monospace, monospace" font-size="10" fill="#6B7280">$ list_skills</text>
  <text x="615" y="285" font-family="ui-monospace, monospace" font-size="10" fill="#34D399">  1. debug-node (success: 92%)</text>
  <text x="615" y="300" font-family="ui-monospace, monospace" font-size="10" fill="#34D399">  2. review-pr (success: 88%)</text>
  <text x="615" y="315" font-family="ui-monospace, monospace" font-size="10" fill="#34D399">  3. write-test (success: 95%)</text>
  <text x="615" y="330" font-family="ui-monospace, monospace" font-size="10" fill="#6B7280">$ _</text>
</svg>